<svg width="1440" height="150" viewBox="0 0 1440 150" fill="none" xmlns="http://www.w3.org/2000/svg">
<path d="M0 150L29.88 140.902C60.12 132.049 119.88 113.852 180 108.689C240.12 103.279 299.88 110.656 360 109.918C420.12 108.934 479.88 100.082 540 96.6393C600.12 93.4426 659.88 95.9016 720 99.5902C780.12 103.279 839.88 108.197 900 111.885C960.12 115.574 1019.88 118.033 1080 118.033C1140.12 118.033 1199.88 115.574 1260 119.754C1320.12 123.689 1379.88 134.508 1410.12 139.672L1440 145.082V0H1410.12C1379.88 0 1320.12 0 1260 0C1199.88 0 1140.12 0 1080 0C1019.88 0 960.12 0 900 0C839.88 0 780.12 0 720 0C659.88 0 600.12 0 540 0C479.88 0 420.12 0 360 0C299.88 0 240.12 0 180 0C119.88 0 60.12 0 29.88 0H0V150Z" fill="#1785E3"/>
<path d="M0 95.9016L29.88 91.4754C60.12 86.8033 119.88 77.9508 180 72.541C240.12 67.1312 299.88 65.6557 360 68.1148C420.12 70.5738 479.88 76.9672 540 78.1967C600.12 79.4262 659.88 75.4918 720 74.5082C780.12 73.7705 839.88 76.2295 900 81.6394C960.12 86.8033 1019.88 95.1639 1080 91.4754C1140.12 87.7869 1199.88 72.0492 1260 68.3607C1320.12 64.6721 1379.88 73.0328 1410.12 76.9672L1440 81.1475V0H1410.12C1379.88 0 1320.12 0 1260 0C1199.88 0 1140.12 0 1080 0C1019.88 0 960.12 0 900 0C839.88 0 780.12 0 720 0C659.88 0 600.12 0 540 0C479.88 0 420.12 0 360 0C299.88 0 240.12 0 180 0C119.88 0 60.12 0 29.88 0H0V95.9016Z" fill="#000C24"/>
</svg>
