<svg width="414" height="100" viewBox="0 0 414 100" fill="none" xmlns="http://www.w3.org/2000/svg">
<path d="M0 100L8.5905 93.9344C17.2845 88.0328 34.4655 75.9016 51.75 72.459C69.0345 68.8525 86.2155 73.7705 103.5 73.2787C120.784 72.6229 137.965 66.7213 155.25 64.4262C172.534 62.2951 189.715 63.9344 207 66.3934C224.284 68.8525 241.465 72.1311 258.75 74.5902C276.034 77.0492 293.215 78.6885 310.5 78.6885C327.784 78.6885 344.965 77.0492 362.25 79.8361C379.534 82.459 396.716 89.6721 405.409 93.1148L414 96.7213V0H405.409C396.716 0 379.534 0 362.25 0C344.965 0 327.784 0 310.5 0C293.215 0 276.034 0 258.75 0C241.465 0 224.284 0 207 0C189.715 0 172.534 0 155.25 0C137.965 0 120.784 0 103.5 0C86.2155 0 69.0345 0 51.75 0C34.4655 0 17.2845 0 8.5905 0H0V100Z" fill="#1785E3"/>
<path d="M0 63.9344L8.5905 60.9836C17.2845 57.8688 34.4655 51.9672 51.75 48.3607C69.0345 44.7541 86.2155 43.7705 103.5 45.4098C120.784 47.0492 137.965 51.3115 155.25 52.1311C172.534 52.9508 189.715 50.3279 207 49.6721C224.284 49.1803 241.465 50.8197 258.75 54.4262C276.034 57.8688 293.215 63.4426 310.5 60.9836C327.784 58.5246 344.965 48.0328 362.25 45.5738C379.534 43.1147 396.716 48.6885 405.409 51.3115L414 54.0984V0H405.409C396.716 0 379.534 0 362.25 0C344.965 0 327.784 0 310.5 0C293.215 0 276.034 0 258.75 0C241.465 0 224.284 0 207 0C189.715 0 172.534 0 155.25 0C137.965 0 120.784 0 103.5 0C86.2155 0 69.0345 0 51.75 0C34.4655 0 17.2845 0 8.5905 0H0V63.9344Z" fill="#000C24"/>
</svg>
