<svg width="100" height="100" viewBox="0 0 100 100" fill="none" xmlns="http://www.w3.org/2000/svg">
<path d="M75.8878 0.696572C84.2428 2.4837 92.5977 7.94435 96.253 16.185C99.93 24.4256 98.8857 35.4462 99.2338 46.6654C99.5819 57.9093 101.301 69.3519 98.0589 78.4364C94.817 87.4962 86.5926 94.1482 77.8895 96.5807C69.1865 98.9884 60.0265 97.1764 50.4749 97.8962C40.945 98.5912 31.0453 101.868 23.7565 98.5168C16.4676 95.1659 11.8115 85.1878 8.37379 75.4083C4.95784 65.6287 2.76031 56.0478 1.21552 45.4243C-0.329274 34.8008 -1.24309 23.1845 3.8482 16.6566C8.91773 10.1286 19.9706 8.71381 28.8042 7.27418C37.6378 5.80973 44.2522 4.32046 51.7151 2.58298C59.1779 0.870321 67.5329 -1.06573 75.8878 0.696572Z" fill="#1785E3"/>
</svg>
