<svg width="120" height="120" viewBox="0 0 120 120" fill="none" xmlns="http://www.w3.org/2000/svg">
<circle cx="1.5" cy="118.5" r="1.5" fill="white"/>
<circle cx="10.5" cy="118.5" r="1.5" fill="white"/>
<circle cx="1.5" cy="109.5" r="1.5" fill="white"/>
<circle cx="10.5" cy="109.5" r="1.5" fill="white"/>
<circle cx="1.5" cy="118.5" r="1.5" fill="white"/>
<circle cx="10.5" cy="118.5" r="1.5" fill="white"/>
<circle cx="19.5" cy="118.5" r="1.5" fill="white"/>
<circle cx="28.5" cy="118.5" r="1.5" fill="white"/>
<circle cx="19.5" cy="109.5" r="1.5" fill="white"/>
<circle cx="28.5" cy="109.5" r="1.5" fill="white"/>
<circle cx="19.5" cy="118.5" r="1.5" fill="white"/>
<circle cx="28.5" cy="118.5" r="1.5" fill="white"/>
<circle cx="1.5" cy="100.5" r="1.5" fill="white"/>
<circle cx="10.5" cy="100.5" r="1.5" fill="white"/>
<circle cx="1.5" cy="91.5" r="1.5" fill="white"/>
<circle cx="10.5" cy="91.5" r="1.5" fill="white"/>
<circle cx="1.5" cy="100.5" r="1.5" fill="white"/>
<circle cx="10.5" cy="100.5" r="1.5" fill="white"/>
<circle cx="19.5" cy="100.5" r="1.5" fill="white"/>
<circle cx="28.5" cy="100.5" r="1.5" fill="white"/>
<circle cx="19.5" cy="91.5" r="1.5" fill="white"/>
<circle cx="28.5" cy="91.5" r="1.5" fill="white"/>
<circle cx="19.5" cy="100.5" r="1.5" fill="white"/>
<circle cx="28.5" cy="100.5" r="1.5" fill="white"/>
<circle cx="37.5" cy="118.5" r="1.5" fill="white"/>
<circle cx="46.5" cy="118.5" r="1.5" fill="white"/>
<circle cx="37.5" cy="109.5" r="1.5" fill="white"/>
<circle cx="46.5" cy="109.5" r="1.5" fill="white"/>
<circle cx="37.5" cy="118.5" r="1.5" fill="white"/>
<circle cx="46.5" cy="118.5" r="1.5" fill="white"/>
<circle cx="55.5" cy="118.5" r="1.5" fill="white"/>
<circle cx="64.5" cy="118.5" r="1.5" fill="white"/>
<circle cx="55.5" cy="109.5" r="1.5" fill="white"/>
<circle cx="64.5" cy="109.5" r="1.5" fill="white"/>
<circle cx="55.5" cy="118.5" r="1.5" fill="white"/>
<circle cx="64.5" cy="118.5" r="1.5" fill="white"/>
<circle cx="37.5" cy="100.5" r="1.5" fill="white"/>
<circle cx="46.5" cy="100.5" r="1.5" fill="white"/>
<circle cx="37.5" cy="91.5" r="1.5" fill="white"/>
<circle cx="46.5" cy="91.5" r="1.5" fill="white"/>
<circle cx="37.5" cy="100.5" r="1.5" fill="white"/>
<circle cx="46.5" cy="100.5" r="1.5" fill="white"/>
<circle cx="55.5" cy="100.5" r="1.5" fill="white"/>
<circle cx="64.5" cy="100.5" r="1.5" fill="white"/>
<circle cx="55.5" cy="91.5" r="1.5" fill="white"/>
<circle cx="64.5" cy="91.5" r="1.5" fill="white"/>
<circle cx="55.5" cy="100.5" r="1.5" fill="white"/>
<circle cx="64.5" cy="100.5" r="1.5" fill="white"/>
<circle cx="1.5" cy="82.5" r="1.5" fill="white"/>
<circle cx="10.5" cy="82.5" r="1.5" fill="white"/>
<circle cx="1.5" cy="73.5" r="1.5" fill="white"/>
<circle cx="10.5" cy="73.5" r="1.5" fill="white"/>
<circle cx="1.5" cy="82.5" r="1.5" fill="white"/>
<circle cx="10.5" cy="82.5" r="1.5" fill="white"/>
<circle cx="19.5" cy="82.5" r="1.5" fill="white"/>
<circle cx="28.5" cy="82.5" r="1.5" fill="white"/>
<circle cx="19.5" cy="73.5" r="1.5" fill="white"/>
<circle cx="28.5" cy="73.5" r="1.5" fill="white"/>
<circle cx="19.5" cy="82.5" r="1.5" fill="white"/>
<circle cx="28.5" cy="82.5" r="1.5" fill="white"/>
<circle cx="1.5" cy="64.5" r="1.5" fill="white"/>
<circle cx="10.5" cy="64.5" r="1.5" fill="white"/>
<circle cx="1.5" cy="55.5" r="1.5" fill="white"/>
<circle cx="10.5" cy="55.5" r="1.5" fill="white"/>
<circle cx="1.5" cy="64.5" r="1.5" fill="white"/>
<circle cx="10.5" cy="64.5" r="1.5" fill="white"/>
<circle cx="19.5" cy="64.5" r="1.5" fill="white"/>
<circle cx="28.5" cy="64.5" r="1.5" fill="white"/>
<circle cx="19.5" cy="55.5" r="1.5" fill="white"/>
<circle cx="28.5" cy="55.5" r="1.5" fill="white"/>
<circle cx="19.5" cy="64.5" r="1.5" fill="white"/>
<circle cx="28.5" cy="64.5" r="1.5" fill="white"/>
<circle cx="37.5" cy="82.5" r="1.5" fill="white"/>
<circle cx="46.5" cy="82.5" r="1.5" fill="white"/>
<circle cx="37.5" cy="73.5" r="1.5" fill="white"/>
<circle cx="46.5" cy="73.5" r="1.5" fill="white"/>
<circle cx="37.5" cy="82.5" r="1.5" fill="white"/>
<circle cx="46.5" cy="82.5" r="1.5" fill="white"/>
<circle cx="55.5" cy="82.5" r="1.5" fill="white"/>
<circle cx="64.5" cy="82.5" r="1.5" fill="white"/>
<circle cx="55.5" cy="73.5" r="1.5" fill="white"/>
<circle cx="64.5" cy="73.5" r="1.5" fill="white"/>
<circle cx="55.5" cy="82.5" r="1.5" fill="white"/>
<circle cx="64.5" cy="82.5" r="1.5" fill="white"/>
<circle cx="37.5" cy="64.5" r="1.5" fill="white"/>
<circle cx="46.5" cy="64.5" r="1.5" fill="white"/>
<circle cx="37.5" cy="55.5" r="1.5" fill="white"/>
<circle cx="46.5" cy="55.5" r="1.5" fill="white"/>
<circle cx="37.5" cy="64.5" r="1.5" fill="white"/>
<circle cx="46.5" cy="64.5" r="1.5" fill="white"/>
<circle cx="55.5" cy="64.5" r="1.5" fill="white"/>
<circle cx="64.5" cy="64.5" r="1.5" fill="white"/>
<circle cx="55.5" cy="55.5" r="1.5" fill="white"/>
<circle cx="64.5" cy="55.5" r="1.5" fill="white"/>
<circle cx="55.5" cy="64.5" r="1.5" fill="white"/>
<circle cx="64.5" cy="64.5" r="1.5" fill="white"/>
<circle cx="73.5" cy="118.5" r="1.5" fill="white"/>
<circle cx="82.5" cy="118.5" r="1.5" fill="white"/>
<circle cx="73.5" cy="109.5" r="1.5" fill="white"/>
<circle cx="82.5" cy="109.5" r="1.5" fill="white"/>
<circle cx="73.5" cy="118.5" r="1.5" fill="white"/>
<circle cx="82.5" cy="118.5" r="1.5" fill="white"/>
<circle cx="91.5" cy="118.5" r="1.5" fill="white"/>
<circle cx="100.5" cy="118.5" r="1.5" fill="white"/>
<circle cx="91.5" cy="109.5" r="1.5" fill="white"/>
<circle cx="100.5" cy="109.5" r="1.5" fill="white"/>
<circle cx="91.5" cy="118.5" r="1.5" fill="white"/>
<circle cx="100.5" cy="118.5" r="1.5" fill="white"/>
<circle cx="73.5" cy="100.5" r="1.5" fill="white"/>
<circle cx="82.5" cy="100.5" r="1.5" fill="white"/>
<circle cx="73.5" cy="91.5" r="1.5" fill="white"/>
<circle cx="82.5" cy="91.5" r="1.5" fill="white"/>
<circle cx="73.5" cy="100.5" r="1.5" fill="white"/>
<circle cx="82.5" cy="100.5" r="1.5" fill="white"/>
<circle cx="91.5" cy="100.5" r="1.5" fill="white"/>
<circle cx="100.5" cy="100.5" r="1.5" fill="white"/>
<circle cx="91.5" cy="91.5" r="1.5" fill="white"/>
<circle cx="100.5" cy="91.5" r="1.5" fill="white"/>
<circle cx="91.5" cy="100.5" r="1.5" fill="white"/>
<circle cx="100.5" cy="100.5" r="1.5" fill="white"/>
<circle cx="109.5" cy="118.5" r="1.5" fill="white"/>
<circle cx="118.5" cy="118.5" r="1.5" fill="white"/>
<circle cx="109.5" cy="109.5" r="1.5" fill="white"/>
<circle cx="118.5" cy="109.5" r="1.5" fill="white"/>
<circle cx="109.5" cy="118.5" r="1.5" fill="white"/>
<circle cx="118.5" cy="118.5" r="1.5" fill="white"/>
<circle cx="109.5" cy="100.5" r="1.5" fill="white"/>
<circle cx="118.5" cy="100.5" r="1.5" fill="white"/>
<circle cx="109.5" cy="91.5" r="1.5" fill="white"/>
<circle cx="118.5" cy="91.5" r="1.5" fill="white"/>
<circle cx="109.5" cy="100.5" r="1.5" fill="white"/>
<circle cx="118.5" cy="100.5" r="1.5" fill="white"/>
<circle cx="73.5" cy="82.5" r="1.5" fill="white"/>
<circle cx="82.5" cy="82.5" r="1.5" fill="white"/>
<circle cx="73.5" cy="73.5" r="1.5" fill="white"/>
<circle cx="82.5" cy="73.5" r="1.5" fill="white"/>
<circle cx="73.5" cy="82.5" r="1.5" fill="white"/>
<circle cx="82.5" cy="82.5" r="1.5" fill="white"/>
<circle cx="91.5" cy="82.5" r="1.5" fill="white"/>
<circle cx="100.5" cy="82.5" r="1.5" fill="white"/>
<circle cx="91.5" cy="73.5" r="1.5" fill="white"/>
<circle cx="100.5" cy="73.5" r="1.5" fill="white"/>
<circle cx="91.5" cy="82.5" r="1.5" fill="white"/>
<circle cx="100.5" cy="82.5" r="1.5" fill="white"/>
<circle cx="73.5" cy="64.5" r="1.5" fill="white"/>
<circle cx="82.5" cy="64.5" r="1.5" fill="white"/>
<circle cx="73.5" cy="55.5" r="1.5" fill="white"/>
<circle cx="82.5" cy="55.5" r="1.5" fill="white"/>
<circle cx="73.5" cy="64.5" r="1.5" fill="white"/>
<circle cx="82.5" cy="64.5" r="1.5" fill="white"/>
<circle cx="91.5" cy="64.5" r="1.5" fill="white"/>
<circle cx="100.5" cy="64.5" r="1.5" fill="white"/>
<circle cx="91.5" cy="55.5" r="1.5" fill="white"/>
<circle cx="100.5" cy="55.5" r="1.5" fill="white"/>
<circle cx="91.5" cy="64.5" r="1.5" fill="white"/>
<circle cx="100.5" cy="64.5" r="1.5" fill="white"/>
<circle cx="109.5" cy="82.5" r="1.5" fill="white"/>
<circle cx="118.5" cy="82.5" r="1.5" fill="white"/>
<circle cx="109.5" cy="73.5" r="1.5" fill="white"/>
<circle cx="118.5" cy="73.5" r="1.5" fill="white"/>
<circle cx="109.5" cy="82.5" r="1.5" fill="white"/>
<circle cx="118.5" cy="82.5" r="1.5" fill="white"/>
<circle cx="109.5" cy="64.5" r="1.5" fill="white"/>
<circle cx="118.5" cy="64.5" r="1.5" fill="white"/>
<circle cx="109.5" cy="55.5" r="1.5" fill="white"/>
<circle cx="118.5" cy="55.5" r="1.5" fill="white"/>
<circle cx="109.5" cy="64.5" r="1.5" fill="white"/>
<circle cx="118.5" cy="64.5" r="1.5" fill="white"/>
<circle cx="1.5" cy="46.5" r="1.5" fill="white"/>
<circle cx="10.5" cy="46.5" r="1.5" fill="white"/>
<circle cx="1.5" cy="37.5" r="1.5" fill="white"/>
<circle cx="10.5" cy="37.5" r="1.5" fill="white"/>
<circle cx="1.5" cy="46.5" r="1.5" fill="white"/>
<circle cx="10.5" cy="46.5" r="1.5" fill="white"/>
<circle cx="19.5" cy="46.5" r="1.5" fill="white"/>
<circle cx="28.5" cy="46.5" r="1.5" fill="white"/>
<circle cx="19.5" cy="37.5" r="1.5" fill="white"/>
<circle cx="28.5" cy="37.5" r="1.5" fill="white"/>
<circle cx="19.5" cy="46.5" r="1.5" fill="white"/>
<circle cx="28.5" cy="46.5" r="1.5" fill="white"/>
<circle cx="37.5" cy="46.5" r="1.5" fill="white"/>
<circle cx="46.5" cy="46.5" r="1.5" fill="white"/>
<circle cx="37.5" cy="37.5" r="1.5" fill="white"/>
<circle cx="46.5" cy="37.5" r="1.5" fill="white"/>
<circle cx="37.5" cy="46.5" r="1.5" fill="white"/>
<circle cx="46.5" cy="46.5" r="1.5" fill="white"/>
<circle cx="55.5" cy="46.5" r="1.5" fill="white"/>
<circle cx="64.5" cy="46.5" r="1.5" fill="white"/>
<circle cx="55.5" cy="37.5" r="1.5" fill="white"/>
<circle cx="64.5" cy="37.5" r="1.5" fill="white"/>
<circle cx="55.5" cy="46.5" r="1.5" fill="white"/>
<circle cx="64.5" cy="46.5" r="1.5" fill="white"/>
<circle cx="1.5" cy="28.5" r="1.5" fill="white"/>
<circle cx="10.5" cy="28.5" r="1.5" fill="white"/>
<circle cx="1.5" cy="19.5" r="1.5" fill="white"/>
<circle cx="10.5" cy="19.5" r="1.5" fill="white"/>
<circle cx="1.5" cy="28.5" r="1.5" fill="white"/>
<circle cx="10.5" cy="28.5" r="1.5" fill="white"/>
<circle cx="19.5" cy="28.5" r="1.5" fill="white"/>
<circle cx="28.5" cy="28.5" r="1.5" fill="white"/>
<circle cx="19.5" cy="19.5" r="1.5" fill="white"/>
<circle cx="28.5" cy="19.5" r="1.5" fill="white"/>
<circle cx="19.5" cy="28.5" r="1.5" fill="white"/>
<circle cx="28.5" cy="28.5" r="1.5" fill="white"/>
<circle cx="1.5" cy="10.5" r="1.5" fill="white"/>
<circle cx="10.5" cy="10.5" r="1.5" fill="white"/>
<circle cx="1.5" cy="1.5" r="1.5" fill="white"/>
<circle cx="10.5" cy="1.5" r="1.5" fill="white"/>
<circle cx="1.5" cy="10.5" r="1.5" fill="white"/>
<circle cx="10.5" cy="10.5" r="1.5" fill="white"/>
<circle cx="19.5" cy="10.5" r="1.5" fill="white"/>
<circle cx="28.5" cy="10.5" r="1.5" fill="white"/>
<circle cx="19.5" cy="1.5" r="1.5" fill="white"/>
<circle cx="28.5" cy="1.5" r="1.5" fill="white"/>
<circle cx="19.5" cy="10.5" r="1.5" fill="white"/>
<circle cx="28.5" cy="10.5" r="1.5" fill="white"/>
<circle cx="37.5" cy="28.5" r="1.5" fill="white"/>
<circle cx="46.5" cy="28.5" r="1.5" fill="white"/>
<circle cx="37.5" cy="19.5" r="1.5" fill="white"/>
<circle cx="46.5" cy="19.5" r="1.5" fill="white"/>
<circle cx="37.5" cy="28.5" r="1.5" fill="white"/>
<circle cx="46.5" cy="28.5" r="1.5" fill="white"/>
<circle cx="55.5" cy="28.5" r="1.5" fill="white"/>
<circle cx="64.5" cy="28.5" r="1.5" fill="white"/>
<circle cx="55.5" cy="19.5" r="1.5" fill="white"/>
<circle cx="64.5" cy="19.5" r="1.5" fill="white"/>
<circle cx="55.5" cy="28.5" r="1.5" fill="white"/>
<circle cx="64.5" cy="28.5" r="1.5" fill="white"/>
<circle cx="37.5" cy="10.5" r="1.5" fill="white"/>
<circle cx="46.5" cy="10.5" r="1.5" fill="white"/>
<circle cx="37.5" cy="1.5" r="1.5" fill="white"/>
<circle cx="46.5" cy="1.5" r="1.5" fill="white"/>
<circle cx="37.5" cy="10.5" r="1.5" fill="white"/>
<circle cx="46.5" cy="10.5" r="1.5" fill="white"/>
<circle cx="55.5" cy="10.5" r="1.5" fill="white"/>
<circle cx="64.5" cy="10.5" r="1.5" fill="white"/>
<circle cx="55.5" cy="1.5" r="1.5" fill="white"/>
<circle cx="64.5" cy="1.5" r="1.5" fill="white"/>
<circle cx="55.5" cy="10.5" r="1.5" fill="white"/>
<circle cx="64.5" cy="10.5" r="1.5" fill="white"/>
<circle cx="73.5" cy="46.5" r="1.5" fill="white"/>
<circle cx="82.5" cy="46.5" r="1.5" fill="white"/>
<circle cx="73.5" cy="37.5" r="1.5" fill="white"/>
<circle cx="82.5" cy="37.5" r="1.5" fill="white"/>
<circle cx="73.5" cy="46.5" r="1.5" fill="white"/>
<circle cx="82.5" cy="46.5" r="1.5" fill="white"/>
<circle cx="91.5" cy="46.5" r="1.5" fill="white"/>
<circle cx="100.5" cy="46.5" r="1.5" fill="white"/>
<circle cx="91.5" cy="37.5" r="1.5" fill="white"/>
<circle cx="100.5" cy="37.5" r="1.5" fill="white"/>
<circle cx="91.5" cy="46.5" r="1.5" fill="white"/>
<circle cx="100.5" cy="46.5" r="1.5" fill="white"/>
<circle cx="109.5" cy="46.5" r="1.5" fill="white"/>
<circle cx="118.5" cy="46.5" r="1.5" fill="white"/>
<circle cx="109.5" cy="37.5" r="1.5" fill="white"/>
<circle cx="118.5" cy="37.5" r="1.5" fill="white"/>
<circle cx="109.5" cy="46.5" r="1.5" fill="white"/>
<circle cx="118.5" cy="46.5" r="1.5" fill="white"/>
<circle cx="73.5" cy="28.5" r="1.5" fill="white"/>
<circle cx="82.5" cy="28.5" r="1.5" fill="white"/>
<circle cx="73.5" cy="19.5" r="1.5" fill="white"/>
<circle cx="82.5" cy="19.5" r="1.5" fill="white"/>
<circle cx="73.5" cy="28.5" r="1.5" fill="white"/>
<circle cx="82.5" cy="28.5" r="1.5" fill="white"/>
<circle cx="91.5" cy="28.5" r="1.5" fill="white"/>
<circle cx="100.5" cy="28.5" r="1.5" fill="white"/>
<circle cx="91.5" cy="19.5" r="1.5" fill="white"/>
<circle cx="100.5" cy="19.5" r="1.5" fill="white"/>
<circle cx="91.5" cy="28.5" r="1.5" fill="white"/>
<circle cx="100.5" cy="28.5" r="1.5" fill="white"/>
<circle cx="73.5" cy="10.5" r="1.5" fill="white"/>
<circle cx="82.5" cy="10.5" r="1.5" fill="white"/>
<circle cx="73.5" cy="1.5" r="1.5" fill="white"/>
<circle cx="82.5" cy="1.5" r="1.5" fill="white"/>
<circle cx="73.5" cy="10.5" r="1.5" fill="white"/>
<circle cx="82.5" cy="10.5" r="1.5" fill="white"/>
<circle cx="91.5" cy="10.5" r="1.5" fill="white"/>
<circle cx="100.5" cy="10.5" r="1.5" fill="white"/>
<circle cx="91.5" cy="1.5" r="1.5" fill="white"/>
<circle cx="100.5" cy="1.5" r="1.5" fill="white"/>
<circle cx="91.5" cy="10.5" r="1.5" fill="white"/>
<circle cx="100.5" cy="10.5" r="1.5" fill="white"/>
<circle cx="109.5" cy="28.5" r="1.5" fill="white"/>
<circle cx="118.5" cy="28.5" r="1.5" fill="white"/>
<circle cx="109.5" cy="19.5" r="1.5" fill="white"/>
<circle cx="118.5" cy="19.5" r="1.5" fill="white"/>
<circle cx="109.5" cy="28.5" r="1.5" fill="white"/>
<circle cx="118.5" cy="28.5" r="1.5" fill="white"/>
<circle cx="109.5" cy="10.5" r="1.5" fill="white"/>
<circle cx="118.5" cy="10.5" r="1.5" fill="white"/>
<circle cx="109.5" cy="1.5" r="1.5" fill="white"/>
<circle cx="118.5" cy="1.5" r="1.5" fill="white"/>
<circle cx="109.5" cy="10.5" r="1.5" fill="white"/>
<circle cx="118.5" cy="10.5" r="1.5" fill="white"/>
</svg>
